`<svg xmlns="http://www.w3.org/2000/svg" width="302.362" height="302.362" viewBox="0 0 80 80" xmlns:v="https://vecta.io/nano"><path d="M80 40h-80a40 40 0 0 0 40 40c22.091 0 40-17.909 40-40z" fill="#e6e6e6"/><path d="M80 40c0-22.091-17.908-40-40-40a40 40 0 0 0-40 40z" fill="#d40000"/><circle cx="143.772" cy="-335.062" r="20" transform="matrix(0 1 -1 0 -275.061 -103.772)" fill="#e6e6e6"/><path d="M20 20c-11.046 0-20 8.954-20 20a20 20 0 0 0 20 20 20 20 0 0 0 1.625-.071c-5.381-4.968-8.765-12.071-8.765-19.93h10c0 6.88 3.973 12.763 9.769 15.5a20 20 0 0 0 1.513-29.642A20 20 0 0 0 20 20zm12.629 35.5a20 20 0 0 1-11.004 4.43c4.843 4.471 11.304 7.211 18.376 7.211 14.93 0 27.14-12.21 27.14-27.14h-10c0 9.526-7.615 17.141-17.141 17.141a17.21 17.21 0 0 1-7.372-1.641z" fill="#d40000"/></svg>